<?xml version="1.0" encoding="UTF-8" standalone="no"?>
<!-- Created with Inkscape (http://www.inkscape.org/) -->
<svg
   xmlns:dc="http://purl.org/dc/elements/1.1/"
   xmlns:cc="http://creativecommons.org/ns#"
   xmlns:rdf="http://www.w3.org/1999/02/22-rdf-syntax-ns#"
   xmlns:svg="http://www.w3.org/2000/svg"
   xmlns="http://www.w3.org/2000/svg"
   xmlns:xlink="http://www.w3.org/1999/xlink"
   xmlns:sodipodi="http://sodipodi.sourceforge.net/DTD/sodipodi-0.dtd"
   xmlns:inkscape="http://www.inkscape.org/namespaces/inkscape"
   width="744.09448819"
   height="1052.3622047"
   id="svg2"
   sodipodi:version="0.32"
   inkscape:version="0.46"
   sodipodi:docname="pips.svg"
   inkscape:output_extension="org.inkscape.output.svg.inkscape">
  <defs
     id="defs4">
    <inkscape:perspective
       sodipodi:type="inkscape:persp3d"
       inkscape:vp_x="0 : 526.18109 : 1"
       inkscape:vp_y="0 : 1000 : 0"
       inkscape:vp_z="744.09448 : 526.18109 : 1"
       inkscape:persp3d-origin="372.04724 : 350.78739 : 1"
       id="perspective10" />
    <linearGradient
       gradientUnits="userSpaceOnUse"
       y2="483.61621"
       x2="351.28876"
       y1="654.09302"
       x1="348.58276"
       id="linearGradient3289"
       xlink:href="#linearGradient3283"
       inkscape:collect="always" />
    <linearGradient
       gradientUnits="userSpaceOnUse"
       y2="9.415906"
       x2="40.916698"
       y1="8.0140972"
       x1="42.546917"
       id="linearGradient3279"
       xlink:href="#linearGradient3273"
       inkscape:collect="always" />
    <linearGradient
       gradientUnits="userSpaceOnUse"
       y2="9.0083523"
       x2="44.580212"
       y1="7.1004586"
       x1="42.573788"
       id="linearGradient3269"
       xlink:href="#linearGradient3263"
       inkscape:collect="always" />
    <linearGradient
       gradientUnits="userSpaceOnUse"
       y2="461.08469"
       x2="620.8363"
       y1="603.04376"
       x1="505.37625"
       id="linearGradient3257"
       xlink:href="#linearGradient3251"
       inkscape:collect="always" />
    <linearGradient
       gradientUnits="userSpaceOnUse"
       y2="532.22296"
       x2="28.32386"
       y1="384.20966"
       x1="193.56389"
       id="linearGradient3249"
       xlink:href="#linearGradient3243"
       inkscape:collect="always" />
    <linearGradient
       gradientUnits="userSpaceOnUse"
       y2="623.86444"
       x2="207.26224"
       y1="588.84784"
       x1="74.76712"
       id="linearGradient3241"
       xlink:href="#linearGradient3235"
       inkscape:collect="always" />
    <linearGradient
       gradientUnits="userSpaceOnUse"
       y2="471.93475"
       x2="437.2359"
       y1="633.32831"
       x1="345.43573"
       id="linearGradient3233"
       xlink:href="#linearGradient3227"
       inkscape:collect="always" />
    <linearGradient
       gradientUnits="userSpaceOnUse"
       y2="30.497738"
       x2="27.434795"
       y1="8.963685"
       x1="36.832001"
       id="linearGradient3225"
       xlink:href="#linearGradient3219"
       inkscape:collect="always" />
    <linearGradient
       gradientUnits="userSpaceOnUse"
       xlink:href="#linearGradient6877"
       id="linearGradient7006"
       y2="385.008"
       x2="281.73132"
       y1="324.15829"
       x1="228.60826" />
    <radialGradient
       gradientTransform="matrix(1.09543,0.292114,-0.259827,0.974355,87.3032,-56.7404)"
       gradientUnits="userSpaceOnUse"
       xlink:href="#linearGradient2441"
       id="radialGradient7004"
       fy="421.55402"
       fx="261.38339"
       r="138.62717"
       cy="421.55402"
       cx="261.38339" />
    <radialGradient
       gradientTransform="matrix(0.460957,0.460957,-0.709786,0.709786,534.397,-84.337)"
       gradientUnits="userSpaceOnUse"
       xlink:href="#linearGradient6915"
       id="radialGradient7002"
       fy="407.98532"
       fx="486.12802"
       r="120.73396"
       cy="407.98532"
       cx="486.12802" />
    <radialGradient
       gradientTransform="matrix(1.00764,0.581759,-0.47989,0.831194,210.208,12.6693)"
       gradientUnits="userSpaceOnUse"
       xlink:href="#linearGradient6957"
       id="radialGradient7000"
       fy="421.02667"
       fx="154.04057"
       r="121.07031"
       cy="421.02667"
       cx="154.04057" />
    <radialGradient
       gradientTransform="matrix(1.00764, 0.581759, -0.47989, 0.831194, 210.208, 12.6693)"
       gradientUnits="userSpaceOnUse"
       xlink:href="#linearGradient6957"
       id="radialGradient6963"
       fy="413.66138"
       fx="93.242645"
       r="121.07031"
       cy="413.66138"
       cx="93.242645" />
    <radialGradient
       gradientTransform="matrix(0.460957, 0.460957, -0.709786, 0.709786, 534.397, -84.337)"
       gradientUnits="userSpaceOnUse"
       xlink:href="#linearGradient6915"
       id="radialGradient6921"
       fy="402.79745"
       fx="421.33383"
       r="120.73396"
       cy="402.79745"
       cx="421.33383" />
    <linearGradient
       gradientUnits="userSpaceOnUse"
       xlink:href="#linearGradient6877"
       id="linearGradient6883"
       y2="387.26926"
       x2="281.73132"
       y1="324.15829"
       x1="228.60826" />
    <radialGradient
       gradientTransform="matrix(1.09543, 0.292114, -0.259827, 0.974355, 87.3032, -56.7404)"
       gradientUnits="userSpaceOnUse"
       xlink:href="#linearGradient6853"
       id="radialGradient6859"
       fy="419.87122"
       fx="228.34645"
       r="138.62717"
       cy="419.87122"
       cx="228.34645" />
    <linearGradient
       id="linearGradient6853">
      <stop
         offset="0"
         style="stop-color: rgb(255, 170, 170); stop-opacity: 1;"
         id="stop6855" />
      <stop
         offset="1"
         style="stop-color: rgb(85, 0, 0); stop-opacity: 0;"
         id="stop6857" />
    </linearGradient>
    <linearGradient
       id="linearGradient6877">
      <stop
         offset="0"
         style="stop-color: rgb(0, 170, 0); stop-opacity: 1;"
         id="stop6879" />
      <stop
         offset="1"
         style="stop-color: rgb(0, 170, 0); stop-opacity: 0;"
         id="stop6881" />
    </linearGradient>
    <linearGradient
       id="linearGradient6915">
      <stop
         offset="0"
         style="stop-color: rgb(255, 153, 85); stop-opacity: 1;"
         id="stop6917" />
      <stop
         offset="1"
         style="stop-color: rgb(255, 153, 85); stop-opacity: 0;"
         id="stop6919" />
    </linearGradient>
    <linearGradient
       id="linearGradient6957">
      <stop
         offset="0"
         style="stop-color: rgb(246, 255, 213); stop-opacity: 1;"
         id="stop6959" />
      <stop
         offset="1"
         style="stop-color: rgb(246, 255, 213); stop-opacity: 0;"
         id="stop6961" />
    </linearGradient>
    <inkscape:perspective
       id="perspective62"
       inkscape:persp3d-origin="40.992004 : 16.596897 : 1"
       inkscape:vp_z="81.984009 : 24.895346 : 1"
       inkscape:vp_y="0 : 1000 : 0"
       inkscape:vp_x="0 : 24.895346 : 1"
       sodipodi:type="inkscape:persp3d" />
    <linearGradient
       id="linearGradient2441">
      <stop
         id="stop2443"
         style="stop-color: rgb(255, 87, 89); stop-opacity: 1;"
         offset="0" />
      <stop
         id="stop2445"
         style="stop-color: rgb(226, 0, 0); stop-opacity: 1;"
         offset="1" />
    </linearGradient>
    <linearGradient
       id="linearGradient3219"
       inkscape:collect="always">
      <stop
         id="stop3221"
         offset="0"
         style="stop-color: rgb(255, 128, 128); stop-opacity: 1;" />
      <stop
         id="stop3223"
         offset="1"
         style="stop-color: rgb(255, 128, 128); stop-opacity: 0;" />
    </linearGradient>
    <linearGradient
       id="linearGradient3227"
       inkscape:collect="always">
      <stop
         id="stop3229"
         offset="0"
         style="stop-color: rgb(170, 0, 0); stop-opacity: 1;" />
      <stop
         id="stop3231"
         offset="1"
         style="stop-color: rgb(170, 0, 0); stop-opacity: 0;" />
    </linearGradient>
    <linearGradient
       id="linearGradient3235"
       inkscape:collect="always">
      <stop
         id="stop3237"
         offset="0"
         style="stop-color: rgb(212, 170, 0); stop-opacity: 1;" />
      <stop
         id="stop3239"
         offset="1"
         style="stop-color: rgb(212, 170, 0); stop-opacity: 0;" />
    </linearGradient>
    <linearGradient
       id="linearGradient3243"
       inkscape:collect="always">
      <stop
         id="stop3245"
         offset="0"
         style="stop-color: rgb(255, 238, 170); stop-opacity: 1;" />
      <stop
         id="stop3247"
         offset="1"
         style="stop-color: rgb(255, 238, 170); stop-opacity: 0;" />
    </linearGradient>
    <linearGradient
       id="linearGradient3251"
       inkscape:collect="always">
      <stop
         id="stop3253"
         offset="0"
         style="stop-color: rgb(212, 85, 0); stop-opacity: 1;" />
      <stop
         id="stop3255"
         offset="1"
         style="stop-color: rgb(212, 85, 0); stop-opacity: 0;" />
    </linearGradient>
    <linearGradient
       id="linearGradient3263"
       inkscape:collect="always">
      <stop
         id="stop3265"
         offset="0"
         style="stop-color: rgb(85, 0, 0); stop-opacity: 1;" />
      <stop
         id="stop3267"
         offset="1"
         style="stop-color: rgb(85, 0, 0); stop-opacity: 0;" />
    </linearGradient>
    <linearGradient
       id="linearGradient3273"
       inkscape:collect="always">
      <stop
         id="stop3275"
         offset="0"
         style="stop-color: rgb(160, 44, 44); stop-opacity: 1;" />
      <stop
         id="stop3277"
         offset="1"
         style="stop-color: rgb(160, 44, 44); stop-opacity: 0;" />
    </linearGradient>
    <linearGradient
       id="linearGradient3283"
       inkscape:collect="always">
      <stop
         id="stop3285"
         offset="0"
         style="stop-color: rgb(0, 0, 0); stop-opacity: 1;" />
      <stop
         id="stop3287"
         offset="1"
         style="stop-color: rgb(0, 0, 0); stop-opacity: 0;" />
    </linearGradient>
  </defs>
  <sodipodi:namedview
     id="base"
     pagecolor="#ffffff"
     bordercolor="#666666"
     borderopacity="1.0"
     gridtolerance="10000"
     guidetolerance="10"
     objecttolerance="10"
     inkscape:pageopacity="0.0"
     inkscape:pageshadow="2"
     inkscape:zoom="0.35"
     inkscape:cx="-82.142857"
     inkscape:cy="748.57143"
     inkscape:document-units="px"
     inkscape:current-layer="layer1"
     showgrid="false"
     inkscape:window-width="1916"
     inkscape:window-height="1143"
     inkscape:window-x="0"
     inkscape:window-y="0" />
  <metadata
     id="metadata7">
    <rdf:RDF>
      <cc:Work
         rdf:about="">
        <dc:format>image/svg+xml</dc:format>
        <dc:type
           rdf:resource="http://purl.org/dc/dcmitype/StillImage" />
      </cc:Work>
    </rdf:RDF>
  </metadata>
  <g
     inkscape:label="Layer 1"
     inkscape:groupmode="layer"
     id="layer1">
    <text
       xml:space="preserve"
       style="font-size:48.99999925px;font-style:normal;font-variant:normal;font-weight:bold;font-stretch:normal;text-align:start;line-height:125%;writing-mode:lr;text-anchor:start;fill:#000000;fill-opacity:1;stroke:none;stroke-width:1px;stroke-linecap:butt;stroke-linejoin:miter;stroke-opacity:1;font-family:FreeMono;-inkscape-font-specification:FreeMono Bold"
       id="text2383"
       sodipodi:linespacing="125%"
       transform="matrix(-0.5734754,-0.8192228,0.8192228,-0.5734754,156.64039,992.72828)"><textPath
         xlink:href="#path2387"
         id="textPath3160">× <tspan
   style="fill:#ff0000"
   id="tspan2479">P</tspan>aralléliseur <tspan
   style="fill:#d4aa00"
   id="tspan2481">I</tspan>ntéractif × de <tspan
   style="fill:#ff0000"
   id="tspan2483">P</tspan>rogrammes <tspan
   style="fill:#ff6600"
   id="tspan2485">S</tspan>cientifiques</textPath></text>
    <path
       style="fill:none;fill-rule:evenodd;stroke:none;stroke-width:1px;stroke-linecap:butt;stroke-linejoin:miter;stroke-opacity:1;-inkscape-font-specification:Bitstream Vera Sans;font-family:Bitstream Vera Sans;font-weight:normal;font-style:normal;font-stretch:normal;font-variant:normal;font-size:56px;text-anchor:start;text-align:start;writing-mode:lr;line-height:125%"
       d="M 608.57141,450.93362 C 608.57141,598.39648 488.89141,718.07648 341.42856,718.07648 C 193.9657,718.07648 74.285706,598.39648 74.285706,450.93362 C 74.285706,303.47077 193.9657,183.79077 341.42856,183.79077 C 488.89141,183.79077 608.57141,303.47077 608.57141,450.93362 z"
       id="path2387" />
    <text
       xml:space="preserve"
       style="font-size:187.24781799px;font-style:normal;font-variant:normal;font-weight:bold;font-stretch:normal;text-align:start;line-height:100%;writing-mode:lr-tb;text-anchor:start;fill:#000000;fill-opacity:1;stroke:none;stroke-width:1px;stroke-linecap:butt;stroke-linejoin:miter;stroke-opacity:1;font-family:FreeMono;-inkscape-font-specification:FreeMono Bold"
       x="347.83646"
       y="59.347591"
       id="text2384"
       sodipodi:linespacing="100%"
       transform="matrix(0.6217742,0.7831966,-0.7831966,0.6217742,0,0)"><tspan
         sodipodi:role="line"
         id="tspan2386"
         x="347.83646"
         y="59.347591">PIPS</tspan></text>
    <g
       id="g2678"
       transform="matrix(1.6157906,2.5234337,-2.5234337,1.6157906,937.41579,-1081.3539)">
      <g
         id="g6965"
         transform="matrix(0.103565,0,0,0.103565,293.736,438.784)">
        <path
           style="opacity:1;fill:#ccaaff;fill-opacity:1;fill-rule:nonzero;stroke:#aa8800;stroke-width:0pt;marker:none;stroke-miterlimit:4;stroke-dasharray:none;visibility:visible;display:inline;overflow:visible"
           id="path6953"
           transform="matrix(0.963768,0,0,1.25926,21.9918,-173.476)"
           d="M 606.97269,641.15375 C 606.97269,656.59912 478.98078,669.12007 321.09476,669.12007 C 163.20874,669.12007 35.216825,656.59912 35.216827,641.15375 C 35.216825,625.70838 163.20874,613.18743 321.09476,613.18743 C 478.98078,613.18743 606.97269,625.70838 606.97269,641.15375 z" />
        <path
           style="fill:#ffcc00;fill-rule:evenodd;stroke:#aa8800;stroke-width:8.99567986;stroke-linecap:butt;stroke-linejoin:miter;stroke-miterlimit:4;stroke-dasharray:none;stroke-opacity:1"
           id="path6923"
           d="M 45.596229,553.60999 C 53.887046,546.74058 55.922932,541.07015 56.420979,532.50115 C 78.753571,435.11401 179.53599,370.71582 269.51799,452.6887 L 265.80736,619.93001 C 177.46881,675.1016 80.136533,590.50955 56.949224,593.03317 C 29.790343,591.8172 33.409984,563.68067 45.596229,553.60999 z" />
        <path
           style="fill:url(#radialGradient7000);fill-opacity:1;fill-rule:evenodd;stroke:#aa8800;stroke-width:8.99567986;stroke-linecap:butt;stroke-linejoin:miter;stroke-miterlimit:4;stroke-dasharray:none;stroke-opacity:1"
           id="path6955"
           d="M 45.596229,553.60999 C 53.887046,546.74058 55.922932,541.07015 56.420979,532.50115 C 78.753571,435.11401 179.53599,370.71582 269.51799,452.6887 L 265.80736,619.93001 C 177.46881,675.1016 80.136533,590.50955 56.949224,593.03317 C 29.790343,591.8172 33.409984,563.68067 45.596229,553.60999 z" />
        <path
           style="fill:url(#linearGradient3249);fill-opacity:1;fill-rule:evenodd;stroke:#000000;stroke-width:0pt;stroke-linecap:butt;stroke-linejoin:miter;stroke-miterlimit:4;stroke-dasharray:none;stroke-opacity:1"
           id="path6951"
           d="M 58.336291,543.60693 C 101.81628,423.81875 167.83946,428.80831 235.36965,442.13916 L 226.63151,428.83478 C 130.77653,391.33662 66.338225,478.45872 58.336291,543.60693 z" />
        <path
           style="fill:url(#linearGradient3241);fill-opacity:1;fill-rule:evenodd;stroke:#000000;stroke-width:0pt;stroke-linecap:butt;stroke-linejoin:miter;stroke-miterlimit:4;stroke-dasharray:none;stroke-opacity:1"
           id="path6925"
           d="M 42.168633,564.76489 C 42.853574,579.51139 54.481167,577.83106 68.239606,572.77736 C 138.58343,634.28789 197.67379,622.96682 257.44986,616.08365 L 234.00523,629.23115 C 196.57242,641.50853 144.61844,633.90273 65.938215,589.7018 C 49.249067,590.5332 32.435444,581.85708 42.168633,564.76489 z" />
        <path
           style="opacity:1;fill:#ff6600;fill-opacity:1;fill-rule:nonzero;stroke:#803300;stroke-width:10;marker:none;stroke-miterlimit:4;stroke-dasharray:none;visibility:visible;display:inline;overflow:visible"
           id="path6885"
           transform="matrix(1.1023,0,0,1.1023,-35.543,-51.0687)"
           d="M 592.85066,495.19235 C 592.85066,559.3631 541.0348,611.38376 477.1167,611.38376 C 413.1986,611.38376 361.38274,559.3631 361.38274,495.19235 C 361.38274,431.0216 413.1986,379.00094 477.1167,379.00094 C 541.0348,379.00094 592.85066,431.0216 592.85066,495.19235 L 592.85066,495.19235 z" />
        <path
           style="fill:#ff7f2a;fill-rule:evenodd;stroke:#000000;stroke-width:0pt;stroke-linecap:butt;stroke-linejoin:miter;stroke-miterlimit:4;stroke-dasharray:none;stroke-opacity:1"
           id="path6889"
           d="M 568.04438,399.58324 C 454.59864,309.23834 299.87744,449.06423 396.18133,574.3278 C 345.80392,447.12261 460.82729,350.79384 568.04438,399.58324 z" />
        <path
           style="opacity:1;fill:url(#radialGradient7002);fill-opacity:1;fill-rule:nonzero;stroke:#803300;stroke-width:10;marker:none;stroke-miterlimit:4;stroke-dasharray:none;visibility:visible;display:inline;overflow:visible"
           id="path6913"
           transform="matrix(1.1023,0,0,1.1023,-35.543,-51.0687)"
           d="M 592.85066,495.19235 C 592.85066,559.3631 541.0348,611.38376 477.1167,611.38376 C 413.1986,611.38376 361.38274,559.3631 361.38274,495.19235 C 361.38274,431.0216 413.1986,379.00094 477.1167,379.00094 C 541.0348,379.00094 592.85066,431.0216 592.85066,495.19235 L 592.85066,495.19235 z" />
        <path
           sodipodi:nodetypes="ccc"
           style="fill:url(#linearGradient3257);fill-opacity:1;fill-rule:evenodd;stroke:#000000;stroke-width:0pt;stroke-linecap:butt;stroke-linejoin:miter;stroke-miterlimit:4;stroke-dasharray:none;stroke-opacity:1"
           id="path6887"
           d="M 411.70184,589.42634 C 525.14758,679.77124 679.86878,539.94535 583.56489,414.68178 C 637.90332,547.16833 533.59143,657.77907 411.70184,589.42634 z" />
        <path
           style="fill:#ff0000;fill-rule:evenodd;stroke:#800000;stroke-width:10.47889996;stroke-linecap:butt;stroke-linejoin:miter;stroke-miterlimit:4;stroke-dasharray:none;stroke-opacity:1"
           id="path6098"
           d="M 317.01895,392.29738 C 245.10407,361.14137 164.38953,393.06798 186.36921,512.27454 C 218.93179,621.24357 300.37296,673.18702 332.79142,640.0596 C 371.72485,665.71294 428.14484,648.2645 443.53395,522.73076 C 476.48902,384.33038 363.50232,370.5006 317.01895,392.29738 z" />
        <path
           style="fill:#ff8080;fill-rule:evenodd;stroke:#000000;stroke-width:0pt;stroke-linecap:butt;stroke-linejoin:miter;stroke-miterlimit:4;stroke-dasharray:none;stroke-opacity:1"
           id="path6609"
           d="M 226.09674,401.06859 C 254.7535,401.73834 267.97642,409.56257 278.96513,419.06634 C 208.36749,427.36489 200.80092,494.40358 222.72216,566.42293 C 198.95103,529.32588 171.51421,447.59069 226.09674,401.06859 z" />
        <path
           style="fill:#ff8080;fill-opacity:1;fill-rule:evenodd;stroke:#000000;stroke-width:0pt;stroke-linecap:butt;stroke-linejoin:miter;stroke-miterlimit:4;stroke-dasharray:none;stroke-opacity:1"
           id="path6847"
           d="M 245.21935,395.4443 C 261.25664,398.90457 275.64777,404.01101 285.71429,413.44205 L 312.71091,405.56803 C 290.21372,388.61859 267.71654,391.86786 245.21935,395.4443 z" />
        <path
           sodipodi:nodetypes="ccssccc"
           style="fill:url(#radialGradient7004);fill-opacity:1;fill-rule:evenodd;stroke:#800000;stroke-width:10.47889996;stroke-linecap:butt;stroke-linejoin:miter;stroke-miterlimit:4;stroke-dasharray:none;stroke-opacity:1"
           id="path6851"
           d="M 317.01895,392.29738 C 245.10407,361.14137 164.38953,393.06798 186.36921,512.27454 C 202.51056,575.56098 228.40143,615.79117 258.61055,635.25324 C 270.71879,643.05391 283.26436,650.41258 296.74874,651.01093 C 308.01072,651.51067 319.92756,655.70396 332.79142,640.0596 C 371.72485,665.71294 428.14484,648.2645 443.53395,522.73076 C 476.48902,384.33038 363.50232,370.5006 317.01895,392.29738 z" />
        <path
           sodipodi:nodetypes="ccccc"
           transform="matrix(9.65578,0,0,9.65578,-68.1383,249.092)"
           id="path3259"
           d="M 33.030439,15.192041 L 36.754939,16.172173 L 39.401295,15.976147 L 36.558913,14.407936 C 35.382755,14.474782 34.206597,14.883134 33.030439,15.192041 z"
           style="fill:#fc6a6b;fill-opacity:1;fill-rule:evenodd;stroke:#000000;stroke-width:0pt;stroke-linecap:butt;stroke-linejoin:miter;stroke-miterlimit:4;stroke-dasharray:none;stroke-opacity:1" />
        <path
           sodipodi:nodetypes="ccccc"
           style="fill:url(#linearGradient3233);fill-opacity:1;fill-rule:evenodd;stroke:#000000;stroke-width:0pt;stroke-linecap:butt;stroke-linejoin:miter;stroke-miterlimit:4;stroke-dasharray:none;stroke-opacity:1"
           id="path6849"
           d="M 222.77549,589.33804 C 257.86982,623.81769 292.1458,655.30157 331.33684,623.62071 C 385.19513,666.52904 431.43764,588.39411 445.2139,471.93474 C 438.62439,578.01289 407.46652,680.74238 332.95838,635.03935 C 300.31126,672.65585 237.24564,621.20674 222.77549,589.33804 z" />
        <path
           style="fill:#005500;fill-rule:evenodd;stroke:#000000;stroke-width:0pt;stroke-linecap:butt;stroke-linejoin:miter;stroke-miterlimit:4;stroke-dasharray:none;stroke-opacity:1"
           id="path6869"
           d="M 314.5602,388.62226 C 258.63909,407.08992 230.42881,377.28709 223.83316,309.83298 C 262.16024,333.62305 346.18612,292.71619 314.5602,388.62226 z" />
        <path
           sodipodi:nodetypes="ccssssssc"
           style="fill:#00aa00;fill-rule:evenodd;stroke:#000000;stroke-width:0pt;stroke-linecap:butt;stroke-linejoin:miter;stroke-miterlimit:4;stroke-dasharray:none;stroke-opacity:1"
           id="path6873"
           d="M 242.93359,319.98009 C 280.7047,327.33068 326.19608,314.50308 315.75398,366.53738 C 313.6116,358.3247 309.6944,352.15947 304.67711,347.36327 C 303.12012,345.87488 306.33165,337.74176 307.08588,335.73202 C 307.99941,333.29783 295.51718,340.52373 293.27876,339.34402 C 286.67486,335.86358 279.33505,333.42221 272.07829,331.19649 C 270.84751,330.819 273.88161,326.18521 272.6596,325.81611 C 271.28156,325.39987 265.64913,329.24891 264.29305,328.83247 C 256.30135,326.37829 248.79062,323.82056 242.93359,319.98009 z" />
        <path
           sodipodi:nodetypes="ccssssssc"
           style="fill:#008000;fill-rule:evenodd;stroke:#000000;stroke-width:0pt;stroke-linecap:butt;stroke-linejoin:miter;stroke-miterlimit:4;stroke-dasharray:none;stroke-opacity:1"
           id="path6871"
           d="M 226.22071,314.60809 C 238.75428,355.39655 242.63319,404.83967 316.35086,384.44404 C 316.08338,359.8992 303.20597,347.9643 286.41431,339.94363 C 283.93318,338.7585 255.29977,346.34776 264.31566,339.40357 C 266.35033,337.83644 273.92141,334.76793 271.4607,333.89375 C 267.76785,332.58185 264.01557,331.32938 260.27522,330.06497 C 258.7995,329.56611 250.44006,330.70481 248.97243,330.19785 C 247.82702,329.80219 253.57098,327.7633 252.43526,327.35796 C 242.86336,323.94172 233.70944,320.1075 226.22071,314.60809 z" />
        <path
           style="fill:#501616;fill-rule:evenodd;stroke:#000000;stroke-width:0pt;stroke-linecap:butt;stroke-linejoin:miter;stroke-miterlimit:4;stroke-dasharray:none;stroke-opacity:1"
           id="path6861"
           d="M 312.54371,393.06891 C 306.15907,350.62434 322.03652,333.16054 338.5497,319.92707 L 364.0004,319.96505 L 379.72584,334.55543 C 344.96057,345.69585 321.92862,363.19181 321.75416,393.06891 C 319.2678,397.15544 316.46418,399.0212 312.54371,393.06891 z" />
        <path
           style="fill:#a02c2c;fill-rule:evenodd;stroke:#000000;stroke-width:0pt;stroke-linecap:butt;stroke-linejoin:miter;stroke-miterlimit:4;stroke-dasharray:none;stroke-opacity:1"
           id="path6863"
           d="M 340.58852,322.72196 L 354.05051,337.53016 L 372.89731,333.49156 L 362.80081,322.72196 L 340.58852,322.72196 z" />
        <path
           style="fill:#782121;fill-rule:evenodd;stroke:#000000;stroke-width:0pt;stroke-linecap:butt;stroke-linejoin:miter;stroke-miterlimit:4;stroke-dasharray:none;stroke-opacity:1"
           id="path6865"
           d="M 338.56922,324.74126 C 319.40166,341.11248 309.50228,361.99633 313.66452,392.72435 C 315.79054,350.51258 330.24447,341.76227 344.62711,332.81846 L 338.56922,324.74126 z" />
        <path
           style="fill:#2b0000;fill-rule:evenodd;stroke:#000000;stroke-width:0pt;stroke-linecap:butt;stroke-linejoin:miter;stroke-miterlimit:4;stroke-dasharray:none;stroke-opacity:1"
           id="path6867"
           d="M 317.03002,393.39745 C 320.62784,373.31966 315.44835,351.84763 345.97331,336.85706 L 350.68501,340.89566 L 361.45461,339.54946 C 337.22236,344.30512 323.32248,363.52609 317.03002,393.39745 z" />
        <path
           sodipodi:nodetypes="ccsc"
           style="fill:url(#linearGradient7006);fill-opacity:1;fill-rule:evenodd;stroke:#000000;stroke-width:0pt;stroke-linecap:butt;stroke-linejoin:miter;stroke-miterlimit:4;stroke-dasharray:none;stroke-opacity:1"
           id="path6875"
           d="M 228.01138,318.18942 C 240.94795,370.37825 255.74536,400.70122 313.96331,382.05648 C 313.44184,358.5264 297.94184,352.91891 288.2708,352.02141 C 255.62049,349.01233 242.65187,347.55138 228.01138,318.18942 z" />
        <path
           style="opacity:1;fill:#552200;fill-opacity:1;fill-rule:nonzero;stroke:#803300;stroke-width:0pt;marker:none;stroke-miterlimit:4;stroke-dasharray:none;visibility:visible;display:inline;overflow:visible"
           id="path6891"
           d="M 468.49763,404.83789 C 468.49862,405.15659 468.27248,405.4514 467.90464,405.61096 C 467.5368,405.77053 467.08332,405.77053 466.71548,405.61096 C 466.34764,405.4514 466.1215,405.15659 466.12249,404.83789 C 466.1215,404.51919 466.34764,404.22438 466.71548,404.06482 C 467.08332,403.90525 467.5368,403.90525 467.90464,404.06482 C 468.27248,404.22438 468.49862,404.51919 468.49763,404.83789 z" />
        <path
           style="opacity:1;fill:#552200;fill-opacity:1;fill-rule:nonzero;stroke:#803300;stroke-width:0pt;marker:none;stroke-miterlimit:4;stroke-dasharray:none;visibility:visible;display:inline;overflow:visible"
           id="path6893"
           transform="translate(32,8)"
           d="M 468.49763,404.83789 C 468.49862,405.15659 468.27248,405.4514 467.90464,405.61096 C 467.5368,405.77053 467.08332,405.77053 466.71548,405.61096 C 466.34764,405.4514 466.1215,405.15659 466.12249,404.83789 C 466.1215,404.51919 466.34764,404.22438 466.71548,404.06482 C 467.08332,403.90525 467.5368,403.90525 467.90464,404.06482 C 468.27248,404.22438 468.49862,404.51919 468.49763,404.83789 z" />
        <path
           style="opacity:1;fill:#552200;fill-opacity:1;fill-rule:nonzero;stroke:#803300;stroke-width:0pt;marker:none;stroke-miterlimit:4;stroke-dasharray:none;visibility:visible;display:inline;overflow:visible"
           id="path6895"
           transform="translate(32,-24)"
           d="M 468.49763,404.83789 C 468.49862,405.15659 468.27248,405.4514 467.90464,405.61096 C 467.5368,405.77053 467.08332,405.77053 466.71548,405.61096 C 466.34764,405.4514 466.1215,405.15659 466.12249,404.83789 C 466.1215,404.51919 466.34764,404.22438 466.71548,404.06482 C 467.08332,403.90525 467.5368,403.90525 467.90464,404.06482 C 468.27248,404.22438 468.49862,404.51919 468.49763,404.83789 z" />
        <path
           style="opacity:1;fill:#552200;fill-opacity:1;fill-rule:nonzero;stroke:#803300;stroke-width:0pt;marker:none;stroke-miterlimit:4;stroke-dasharray:none;visibility:visible;display:inline;overflow:visible"
           id="path6897"
           transform="translate(26,-8)"
           d="M 468.49763,404.83789 C 468.49862,405.15659 468.27248,405.4514 467.90464,405.61096 C 467.5368,405.77053 467.08332,405.77053 466.71548,405.61096 C 466.34764,405.4514 466.1215,405.15659 466.12249,404.83789 C 466.1215,404.51919 466.34764,404.22438 466.71548,404.06482 C 467.08332,403.90525 467.5368,403.90525 467.90464,404.06482 C 468.27248,404.22438 468.49862,404.51919 468.49763,404.83789 z" />
        <path
           style="opacity:1;fill:#552200;fill-opacity:1;fill-rule:nonzero;stroke:#803300;stroke-width:0pt;marker:none;stroke-miterlimit:4;stroke-dasharray:none;visibility:visible;display:inline;overflow:visible"
           id="path6899"
           transform="translate(56,-6)"
           d="M 468.49763,404.83789 C 468.49862,405.15659 468.27248,405.4514 467.90464,405.61096 C 467.5368,405.77053 467.08332,405.77053 466.71548,405.61096 C 466.34764,405.4514 466.1215,405.15659 466.12249,404.83789 C 466.1215,404.51919 466.34764,404.22438 466.71548,404.06482 C 467.08332,403.90525 467.5368,403.90525 467.90464,404.06482 C 468.27248,404.22438 468.49862,404.51919 468.49763,404.83789 z" />
        <path
           style="opacity:1;fill:#552200;fill-opacity:1;fill-rule:nonzero;stroke:#803300;stroke-width:0pt;marker:none;stroke-miterlimit:4;stroke-dasharray:none;visibility:visible;display:inline;overflow:visible"
           id="path6901"
           transform="translate(66,20)"
           d="M 468.49763,404.83789 C 468.49862,405.15659 468.27248,405.4514 467.90464,405.61096 C 467.5368,405.77053 467.08332,405.77053 466.71548,405.61096 C 466.34764,405.4514 466.1215,405.15659 466.12249,404.83789 C 466.1215,404.51919 466.34764,404.22438 466.71548,404.06482 C 467.08332,403.90525 467.5368,403.90525 467.90464,404.06482 C 468.27248,404.22438 468.49862,404.51919 468.49763,404.83789 z" />
        <path
           style="opacity:1;fill:#552200;fill-opacity:1;fill-rule:nonzero;stroke:#803300;stroke-width:0pt;marker:none;stroke-miterlimit:4;stroke-dasharray:none;visibility:visible;display:inline;overflow:visible"
           id="path6903"
           transform="translate(80,-2)"
           d="M 468.49763,404.83789 C 468.49862,405.15659 468.27248,405.4514 467.90464,405.61096 C 467.5368,405.77053 467.08332,405.77053 466.71548,405.61096 C 466.34764,405.4514 466.1215,405.15659 466.12249,404.83789 C 466.1215,404.51919 466.34764,404.22438 466.71548,404.06482 C 467.08332,403.90525 467.5368,403.90525 467.90464,404.06482 C 468.27248,404.22438 468.49862,404.51919 468.49763,404.83789 z" />
        <path
           style="opacity:1;fill:#552200;fill-opacity:1;fill-rule:nonzero;stroke:#803300;stroke-width:0pt;marker:none;stroke-miterlimit:4;stroke-dasharray:none;visibility:visible;display:inline;overflow:visible"
           id="path6905"
           transform="translate(-22,-14)"
           d="M 468.49763,404.83789 C 468.49862,405.15659 468.27248,405.4514 467.90464,405.61096 C 467.5368,405.77053 467.08332,405.77053 466.71548,405.61096 C 466.34764,405.4514 466.1215,405.15659 466.12249,404.83789 C 466.1215,404.51919 466.34764,404.22438 466.71548,404.06482 C 467.08332,403.90525 467.5368,403.90525 467.90464,404.06482 C 468.27248,404.22438 468.49862,404.51919 468.49763,404.83789 z" />
        <path
           style="opacity:1;fill:#552200;fill-opacity:1;fill-rule:nonzero;stroke:#803300;stroke-width:0pt;marker:none;stroke-miterlimit:4;stroke-dasharray:none;visibility:visible;display:inline;overflow:visible"
           id="path6907"
           transform="translate(2,-26)"
           d="M 468.49763,404.83789 C 468.49862,405.15659 468.27248,405.4514 467.90464,405.61096 C 467.5368,405.77053 467.08332,405.77053 466.71548,405.61096 C 466.34764,405.4514 466.1215,405.15659 466.12249,404.83789 C 466.1215,404.51919 466.34764,404.22438 466.71548,404.06482 C 467.08332,403.90525 467.5368,403.90525 467.90464,404.06482 C 468.27248,404.22438 468.49862,404.51919 468.49763,404.83789 z" />
        <path
           style="opacity:1;fill:#552200;fill-opacity:1;fill-rule:nonzero;stroke:#803300;stroke-width:0pt;marker:none;stroke-miterlimit:4;stroke-dasharray:none;visibility:visible;display:inline;overflow:visible"
           id="path6909"
           transform="translate(-16,24)"
           d="M 468.49763,404.83789 C 468.49862,405.15659 468.27248,405.4514 467.90464,405.61096 C 467.5368,405.77053 467.08332,405.77053 466.71548,405.61096 C 466.34764,405.4514 466.1215,405.15659 466.12249,404.83789 C 466.1215,404.51919 466.34764,404.22438 466.71548,404.06482 C 467.08332,403.90525 467.5368,403.90525 467.90464,404.06482 C 468.27248,404.22438 468.49862,404.51919 468.49763,404.83789 z" />
        <path
           style="opacity:1;fill:#552200;fill-opacity:1;fill-rule:nonzero;stroke:#803300;stroke-width:0pt;marker:none;stroke-miterlimit:4;stroke-dasharray:none;visibility:visible;display:inline;overflow:visible"
           id="path6911"
           transform="translate(20,42)"
           d="M 468.49763,404.83789 C 468.49862,405.15659 468.27248,405.4514 467.90464,405.61096 C 467.5368,405.77053 467.08332,405.77053 466.71548,405.61096 C 466.34764,405.4514 466.1215,405.15659 466.12249,404.83789 C 466.1215,404.51919 466.34764,404.22438 466.71548,404.06482 C 467.08332,403.90525 467.5368,403.90525 467.90464,404.06482 C 468.27248,404.22438 468.49862,404.51919 468.49763,404.83789 z" />
        <path
           sodipodi:nodetypes="cccc"
           transform="matrix(9.65578,0,0,9.65578,-68.1383,249.092)"
           id="path3217"
           d="M 31.960044,15.881864 C 26.100441,17.082453 27.145945,24.939169 28.452234,28.841272 C 28.350475,21.57565 30.68745,17.145624 35.467854,16.856255 L 31.960044,15.881864 z"
           style="fill:url(#linearGradient3225);fill-opacity:1;fill-rule:evenodd;stroke:#000000;stroke-width:0pt;stroke-linecap:butt;stroke-linejoin:miter;stroke-miterlimit:4;stroke-dasharray:none;stroke-opacity:1" />
        <path
           transform="matrix(9.65578,0,0,9.65578,-68.1383,249.092)"
           id="path3261"
           d="M 42.717105,7.7453802 L 43.791974,8.9546083 L 45.377407,8.6321475 L 44.517511,7.7812091 L 42.717105,7.7453802 z"
           style="fill:url(#linearGradient3269);fill-opacity:1;fill-rule:evenodd;stroke:#000000;stroke-width:0pt;stroke-linecap:butt;stroke-linejoin:miter;stroke-miterlimit:4;stroke-dasharray:none;stroke-opacity:1" />
        <path
           sodipodi:nodetypes="ccccc"
           transform="matrix(9.65578,0,0,9.65578,-68.1383,249.092)"
           id="path3271"
           d="M 42.08114,8.0140975 L 42.546917,8.6679764 C 41.710612,9.1161449 40.919651,9.6838574 40.343435,10.817715 L 40.307606,10.145922 C 40.747828,9.2505706 41.459911,8.6130242 42.08114,8.0140975 z"
           style="fill:url(#linearGradient3279);fill-opacity:1;fill-rule:evenodd;stroke:#000000;stroke-width:0pt;stroke-linecap:butt;stroke-linejoin:miter;stroke-miterlimit:4;stroke-dasharray:none;stroke-opacity:1" />
      </g>
    </g>
  </g>
</svg>
