/* XPM */
static char *logo_pips_small[] = {
/* width height num_colors chars_per_pixel */
"    51    56        5            1",
/* colors */
". c #0000ff",
"# c #00ff00",
"a c #ff0000",
"b c #ffff00",
"c c #000000",
/* pixels */
"ccccccccccccccccccccccccccccccccccccccccccccccccccc",
"ccccccccccccccccccccccccccccccccccccccccccccccccccc",
"cccccccccaaacaacc....cccbbbbcc............ccccccccc",
"cccccccccaaaaaacc.....ccbbbbbc.............cccccccc",
"ccccccaaaaacccccc.....ccbbbbcc.....cccccc......cccc",
"cccccaaaaaccccccc.....cbbbbbbc.....ccccccc....ccccc",
"ccccaaacccccccccc.....cbbbbbcc.....cccccccccc...ccc",
"ccccaaacccccccccc.....cccccccc.....cccccccccc...ccc",
"ccccaaacccccccccc.....cccccccc.....cccccccccc...ccc",
"ccaaaaccccccccccc.....cc####cc.....ccccccccccc...cc",
"ccaaaaccccccccccc.....cc####cc.....ccccccccccc...cc",
"ccaaaaccccccccccc.....cc####cc.....ccccccccccc...cc",
"ccaaaaccccccccccc.....cc####cc.....ccccccccccc...cc",
"cccaaaccccccccccc.....c#####cc.....ccccccccccc...cc",
"ccaaaaccccccccccc.....cc####cc.....ccccccccccc...cc",
"cccaaaccccccccccc.....cc#####c.....ccccccccccc...cc",
"cccaaaccccccccccc.....cc####cc.....ccccccccccc...cc",
"ccaaaaccccccccccc.....cc#####c.....ccccccccccc...cc",
"cccaaaccccccccccc.....cc####cc.....ccccccccccc...cc",
"cccaaaccccccccccc.....cc####cc.....cccccccccc...ccc",
"ccaaacccccccccccc.....cc####cc.....cccccccccc...ccc",
"ccaaaaccccccccccc.....cc####cc.....ccccccccc....ccc",
"ccccaaacccccccccc......c####cc.....cccccc.....ccccc",
"ccccaaacccccccccc.....c#####cc.....cccccc.....ccccc",
"ccccaaacccccccccc.....cc####cc.............cccccccc",
"cccccaaaaaacccccc.....cc####cc......ccccccccccccccc",
"ccccccaaaaaaccccc.....c#####cc.....cccccccccccccccc",
"cccccccccaaaaaaaa......######c.....cccccccccccccccc",
"cccccccccaccaaccc.....a#####aa.....acccaaaccccccccc",
"ccccccccccccccccc.....c#####cc.....aaaaaaaacccccccc",
"ccccccccccccccccc.....c#####cc.....ccccaaaaaaaccccc",
"ccccccccccccccccc.....cc####cc.....cccccaaaaaaccccc",
"ccccccccc.............cc####cc.....ccccccccccaaaccc",
"cccccccc......c.......c#####cc.....ccccccccccaaaccc",
"cccccc....ccccccc.....cc#####c.....cccccccccaaaaccc",
"ccccc..cccccccccc.....cc####cc.....cccccccccccaaacc",
"cccc...cccccccccc.....cc####cc.....cccccccccccaaacc",
"cccc...cccccccccc.....cc#####c.....cccccccccccaaacc",
"cccc..ccccccccccc.....cc####cc.....cccccccccccaaaac",
"ccc...ccccccccccc.....cc####cc.....cccccccccccaaaac",
"cc....ccccccccccc.....c#####cc.....cccccccccccaaacc",
"ccc...ccccccccccc.....cc####cc.....cccccccccccaaaac",
"ccc...ccccccccccc.....c#####cc.....cccccccccccaaacc",
"cc....ccccccccccc.....c#####cc.....cccccccccccaaacc",
"cc....ccccccccccc.....cc#####c.....cccccccccccaaacc",
"cc....ccccccccccc.....cc####cc.....cccccccccccaaacc",
"cc....ccccccccccc.....cc####cc.....cccccccccccaaacc",
"cc....ccccccccccc.....cc####cc.....cccccccccccaaacc",
"cccc..ccccccccccc.....c#####cc.....ccccccccccaaaccc",
"cccc...cccccccccc.....c#####cc.....ccccccccccaaaccc",
"cccc...cccccccccc.....cc####cc.....ccccccccccaaaccc",
"cccccc....ccccccc.....c#####cc.....cccccccccaaacccc",
"ccccc......cccccc.....c#####cc.....ccccccaaaaaccccc",
"ccccccccc.............c######c.....caaaaaaacccccccc",
"ccccccccc.............cc####cc.....ccaaaaaccccccccc",
"ccccccccccccccccccccccccccccccccccccccccccccccccccc"
};
